<svg enable-background="new 0 0 945 495" viewBox="0 0 945 495" xmlns="http://www.w3.org/2000/svg" xmlns:xlink="http://www.w3.org/1999/xlink"><defs><path id="SVGID_00000057138414971840424320000013814386249812380288_" d="M0 .22H945V494.77H0Z"/><clipPath id="SVGID_00000124145911562651150130000005608989065583979443_"><use xlink:href="#SVGID_00000057138414971840424320000013814386249812380288_"/></clipPath><linearGradient id="lg1"><stop offset="0" stop-color="#edf3ff"/><stop offset="1" stop-color="#bdd4ff"/></linearGradient><linearGradient id="SVGID_00000149354062890381235870000015501602580381676951_" gradientUnits="userSpaceOnUse" x1="439.7471" x2="501.2617" xlink:href="#lg1" y1="-82.1422" y2="536.972"/><radialGradient id="SVGID_00000056406547139297894700000002782318043692603541_" cx="463.6173" cy="247.5" gradientUnits="userSpaceOnUse" r="518.0205"><stop offset="0" stop-color="#edf3ff"/><stop offset="1" stop-color="#ffffff" stop-opacity="0"/></radialGradient><linearGradient id="SVGID_00000032648410369175233690000005569327059739092608_" gradientUnits="userSpaceOnUse" x1="472.4998" x2="472.4998" xlink:href="#lg1" y1="448.1522" y2="114.4105"/><linearGradient id="lg2"><stop offset="0" stop-color="#e9f9ee"/><stop offset="1" stop-color="#27be56"/></linearGradient><linearGradient id="SVGID_00000044872948927304527990000006827777770057595785_" gradientUnits="userSpaceOnUse" x1="538.0021" x2="468.7352" xlink:href="#lg2" y1="861.2863" y2="159.7749"/><clipPath id="SVGID_00000178917916156283839830000002248896818440966538_"><use xlink:href="#SVGID_00000165921539175918439890000011615860285963760773_"/></clipPath><linearGradient id="SVGID_00000068668372338838160950000005739516477403399575_" gradientUnits="userSpaceOnUse" x1="378.1985" x2="937.1154" xlink:href="#lg2" y1="74.5532" y2="779.4559"/><linearGradient id="SVGID_00000060721153092972893450000002203920108941094326_" gradientUnits="userSpaceOnUse" x1="395.3558" x2="954.2728" xlink:href="#lg2" y1="60.9492" y2="765.8519"/><linearGradient id="SVGID_00000071550406033601824730000016472261186509634694_" gradientUnits="userSpaceOnUse" x1="408.947" x2="967.864" xlink:href="#lg2" y1="50.1727" y2="755.0754"/><linearGradient id="SVGID_00000062898957327481765740000008980571673937732279_" gradientUnits="userSpaceOnUse" x1="427.6594" x2="986.5764" xlink:href="#lg2" y1="35.3357" y2="740.2384"/><linearGradient id="SVGID_00000080204289242687829900000003475469378212036022_" gradientUnits="userSpaceOnUse" x1="446.3715" x2="1005.2884" xlink:href="#lg2" y1="20.4989" y2="725.4016"/><linearGradient id="SVGID_00000050638105870058194220000005907859956556640414_" gradientUnits="userSpaceOnUse" x1="463.5288" x2="1022.4457" xlink:href="#lg2" y1="6.8948" y2="711.7975"/><linearGradient id="SVGID_00000038375304610005765770000012884505234371161002_" gradientUnits="userSpaceOnUse" x1="475.5649" x2="1034.4818" xlink:href="#lg2" y1="-2.6486" y2="702.2542"/><linearGradient id="SVGID_00000072262678044143590380000017270258314923686049_" gradientUnits="userSpaceOnUse" x1="355.5821" x2="914.499" xlink:href="#lg2" y1="92.4857" y2="797.3885"/><linearGradient id="SVGID_00000006705807920798287570000003003107986356536502_" gradientUnits="userSpaceOnUse" x1="367.6182" x2="926.5351" xlink:href="#lg2" y1="82.9423" y2="787.845"/><linearGradient id="SVGID_00000179609299522842163520000015538737070034382733_" gradientUnits="userSpaceOnUse" x1="381.2094" x2="940.1263" xlink:href="#lg2" y1="72.1659" y2="777.0686"/><linearGradient id="SVGID_00000037678316464598692260000009983144032272262316_" gradientUnits="userSpaceOnUse" x1="398.3667" x2="957.2836" xlink:href="#lg2" y1="58.5618" y2="763.4646"/><linearGradient id="SVGID_00000016076978911793454090000001801955080095181958_" gradientUnits="userSpaceOnUse" x1="411.9579" x2="970.8748" xlink:href="#lg2" y1="47.7854" y2="752.6881"/><linearGradient id="SVGID_00000080925506603807250130000010168609350683707282_" gradientUnits="userSpaceOnUse" x1="430.6703" x2="989.5873" xlink:href="#lg2" y1="32.9483" y2="737.8511"/><linearGradient id="SVGID_00000152952274055166509630000015002461229979754626_" gradientUnits="userSpaceOnUse" x1="447.8272" x2="1006.7442" xlink:href="#lg2" y1="19.3446" y2="724.2473"/><linearGradient id="SVGID_00000049903342699964268630000005296682653161649593_" gradientUnits="userSpaceOnUse" x1="461.4188" x2="1020.3358" xlink:href="#lg2" y1="8.5678" y2="713.4706"/><linearGradient id="SVGID_00000127729211297430534170000013202955866604412607_" gradientUnits="userSpaceOnUse" x1="337.4205" x2="896.3374" xlink:href="#lg2" y1="106.8861" y2="811.7888"/><linearGradient id="SVGID_00000163039089317496800890000009962292540039584951_" gradientUnits="userSpaceOnUse" x1="354.5778" x2="913.4948" xlink:href="#lg2" y1="93.282" y2="798.1848"/><linearGradient id="SVGID_00000067933732000134695290000008955219714498044074_" gradientUnits="userSpaceOnUse" x1="368.169" x2="927.0859" xlink:href="#lg2" y1="82.5056" y2="787.4083"/><linearGradient id="SVGID_00000132785290561787872400000002283773980126224778_" gradientUnits="userSpaceOnUse" x1="386.8814" x2="945.7984" xlink:href="#lg2" y1="67.6685" y2="772.5712"/><linearGradient id="SVGID_00000059268625849325460100000006131292650454422681_" gradientUnits="userSpaceOnUse" x1="405.5934" x2="964.5104" xlink:href="#lg2" y1="52.8317" y2="757.7345"/><linearGradient id="SVGID_00000111871343894677252620000016724995065612888230_" gradientUnits="userSpaceOnUse" x1="422.7508" x2="981.6677" xlink:href="#lg2" y1="39.2277" y2="744.1304"/><linearGradient id="SVGID_00000098906216655507148080000013194752341926681484_" gradientUnits="userSpaceOnUse" x1="434.7869" x2="993.7039" xlink:href="#lg2" y1="29.6843" y2="734.587"/><linearGradient id="SVGID_00000083800528440965476420000017377317486664856459_" gradientUnits="userSpaceOnUse" x1="314.8044" x2="873.7213" xlink:href="#lg2" y1="124.8184" y2="829.7211"/><linearGradient id="SVGID_00000178195311443069934410000001378224745244005034_" gradientUnits="userSpaceOnUse" x1="326.8405" x2="885.7574" xlink:href="#lg2" y1="115.2749" y2="820.1777"/><linearGradient id="SVGID_00000079470376747429516480000017607652396685388974_" gradientUnits="userSpaceOnUse" x1="340.4317" x2="899.3486" xlink:href="#lg2" y1="104.4985" y2="809.4012"/><linearGradient id="SVGID_00000052062454126897303870000017186960433893647285_" gradientUnits="userSpaceOnUse" x1="357.589" x2="916.506" xlink:href="#lg2" y1="90.8944" y2="795.7972"/><linearGradient id="SVGID_00000134961565475648102120000010605473980669029546_" gradientUnits="userSpaceOnUse" x1="371.1802" x2="930.0972" xlink:href="#lg2" y1="80.118" y2="785.0208"/><linearGradient id="SVGID_00000111905653928051701240000014500764264575642045_" gradientUnits="userSpaceOnUse" x1="389.8926" x2="948.8096" xlink:href="#lg2" y1="65.2809" y2="770.1837"/><linearGradient id="SVGID_00000026141424731005958480000014414665955981160120_" gradientUnits="userSpaceOnUse" x1="407.0496" x2="965.9665" xlink:href="#lg2" y1="51.6772" y2="756.58"/><linearGradient id="SVGID_00000039821839101049200870000000291169184540922523_" gradientUnits="userSpaceOnUse" x1="420.6411" x2="979.5581" xlink:href="#lg2" y1="40.9004" y2="745.8032"/><linearGradient id="SVGID_00000137126898672167740890000004601758766603274144_" gradientUnits="userSpaceOnUse" x1="295.4903" x2="854.4072" xlink:href="#lg2" y1="140.1325" y2="845.0352"/><linearGradient id="SVGID_00000027580671825770746200000003234163978179410072_" gradientUnits="userSpaceOnUse" x1="312.6476" x2="871.5646" xlink:href="#lg2" y1="126.5285" y2="831.4312"/><linearGradient id="SVGID_00000171679564053803290760000012489573075882269619_" gradientUnits="userSpaceOnUse" x1="326.2388" x2="885.1558" xlink:href="#lg2" y1="115.752" y2="820.6547"/><linearGradient id="SVGID_00000070081483810904467390000003006860162818701464_" gradientUnits="userSpaceOnUse" x1="344.9512" x2="903.8682" xlink:href="#lg2" y1="100.9149" y2="805.8177"/><linearGradient id="SVGID_00000166669679397737469190000004105730901879366802_" gradientUnits="userSpaceOnUse" x1="363.6632" x2="922.5802" xlink:href="#lg2" y1="86.0782" y2="790.9809"/><linearGradient id="SVGID_00000182494078598712577440000016860970818016966290_" gradientUnits="userSpaceOnUse" x1="380.8206" x2="939.7375" xlink:href="#lg2" y1="72.4741" y2="777.3769"/><linearGradient id="SVGID_00000152235465540867159520000016538256003651473832_" gradientUnits="userSpaceOnUse" x1="392.8567" x2="951.7736" xlink:href="#lg2" y1="62.9307" y2="767.8334"/><linearGradient id="SVGID_00000076588420727356017060000000784830405142739107_" gradientUnits="userSpaceOnUse" x1="272.8738" x2="831.7908" xlink:href="#lg2" y1="158.065" y2="862.9678"/><linearGradient id="SVGID_00000043436478467729418540000007095665122020056252_" gradientUnits="userSpaceOnUse" x1="284.9099" x2="843.8269" xlink:href="#lg2" y1="148.5216" y2="853.4244"/><linearGradient id="SVGID_00000104698959020488076690000008288844572964636297_" gradientUnits="userSpaceOnUse" x1="298.5011" x2="857.4181" xlink:href="#lg2" y1="137.7452" y2="842.6479"/><linearGradient id="SVGID_00000146497888038837937390000017555425407556936075_" gradientUnits="userSpaceOnUse" x1="315.6585" x2="874.5754" xlink:href="#lg2" y1="124.1411" y2="829.0439"/><linearGradient id="SVGID_00000159454290257536283590000010647324196286870669_" gradientUnits="userSpaceOnUse" x1="329.2497" x2="888.1666" xlink:href="#lg2" y1="113.3647" y2="818.2674"/><linearGradient id="SVGID_00000153693520447328182390000004167413437491555467_" gradientUnits="userSpaceOnUse" x1="347.9621" x2="906.879" xlink:href="#lg2" y1="98.5276" y2="803.4304"/><linearGradient id="SVGID_00000171720629943097759770000006699742023047166650_" gradientUnits="userSpaceOnUse" x1="365.119" x2="924.036" xlink:href="#lg2" y1="84.9239" y2="789.8266"/><linearGradient id="SVGID_00000022533791366172122940000014731400767828012690_" gradientUnits="userSpaceOnUse" x1="378.7106" x2="937.6276" xlink:href="#lg2" y1="74.1471" y2="779.0499"/><linearGradient id="SVGID_00000090270318862368878500000018327188677529144709_" gradientUnits="userSpaceOnUse" x1="254.7123" x2="813.6292" xlink:href="#lg2" y1="172.4653" y2="877.3681"/><linearGradient id="SVGID_00000029726377011191903400000009986371320765478034_" gradientUnits="userSpaceOnUse" x1="271.8696" x2="830.7866" xlink:href="#lg2" y1="158.8613" y2="863.764"/><linearGradient id="SVGID_00000046332298866881503280000017465068405509503672_" gradientUnits="userSpaceOnUse" x1="285.4608" x2="844.3777" xlink:href="#lg2" y1="148.0849" y2="852.9876"/><linearGradient id="SVGID_00000016033348560401640770000002038813914194850209_" gradientUnits="userSpaceOnUse" x1="304.1732" x2="863.0901" xlink:href="#lg2" y1="133.2478" y2="838.1505"/><linearGradient id="SVGID_00000179624346227928016980000002702428776102924182_" gradientUnits="userSpaceOnUse" x1="322.8853" x2="881.8022" xlink:href="#lg2" y1="118.411" y2="823.3138"/><linearGradient id="SVGID_00000138541417392487258160000014962820749664637628_" gradientUnits="userSpaceOnUse" x1="340.0426" x2="898.9595" xlink:href="#lg2" y1="104.807" y2="809.7097"/><linearGradient id="SVGID_00000176042957883735540480000000384255968499046578_" gradientUnits="userSpaceOnUse" x1="352.0787" x2="910.9957" xlink:href="#lg2" y1="95.2636" y2="800.1663"/><linearGradient id="SVGID_00000028314345806924797290000017004368363377935521_" gradientUnits="userSpaceOnUse" x1="232.0959" x2="791.0128" xlink:href="#lg2" y1="190.3979" y2="895.3006"/><linearGradient id="SVGID_00000178187102851617888150000007057828823151673278_" gradientUnits="userSpaceOnUse" x1="244.132" x2="803.0489" xlink:href="#lg2" y1="180.8545" y2="885.7572"/><linearGradient id="SVGID_00000049901719000499741730000018268530931363944591_" gradientUnits="userSpaceOnUse" x1="257.7231" x2="816.6401" xlink:href="#lg2" y1="170.078" y2="874.9808"/><linearGradient id="SVGID_00000059999023972356766530000000543273015702746768_" gradientUnits="userSpaceOnUse" x1="274.8805" x2="833.7974" xlink:href="#lg2" y1="156.474" y2="861.3767"/><linearGradient id="SVGID_00000083063689956736958510000017708163224109524870_" gradientUnits="userSpaceOnUse" x1="288.4717" x2="847.3886" xlink:href="#lg2" y1="145.6975" y2="850.6003"/><linearGradient id="SVGID_00000160189279545119542460000013577000494455931780_" gradientUnits="userSpaceOnUse" x1="307.1841" x2="866.1011" xlink:href="#lg2" y1="130.8605" y2="835.7632"/><linearGradient id="SVGID_00000031913477973109849250000004258426141193231277_" gradientUnits="userSpaceOnUse" x1="324.341" x2="883.258" xlink:href="#lg2" y1="117.2567" y2="822.1595"/><linearGradient id="SVGID_00000129909750972749939430000008856833892041589932_" gradientUnits="userSpaceOnUse" x1="337.9326" x2="896.8495" xlink:href="#lg2" y1="106.48" y2="811.3827"/><linearGradient id="lg3"><stop offset="0" stop-color="#77a7ff" stop-opacity="0"/><stop offset="1" stop-color="#4687ff"/></linearGradient><linearGradient id="SVGID_00000098900553416896017190000004373509160572598964_" gradientUnits="userSpaceOnUse" x1="743.7145" x2="825.6134" xlink:href="#lg3" y1="457.8936" y2="309.9742"/><linearGradient id="lg4"><stop offset="0" stop-color="#77a7ff"/><stop offset="1" stop-color="#4687ff"/></linearGradient><linearGradient id="SVGID_00000157989315058312119290000003918031188806523323_" gradientTransform="matrix(.9985 .0555 -.0555 .9985 25.5861 23.4081)" gradientUnits="userSpaceOnUse" x1="712.874" x2="921.608" xlink:href="#lg4" y1="290.1492" y2="392.3569"/><linearGradient id="SVGID_00000123426819367242222970000001207034430881781130_" gradientTransform="matrix(.9985 .0555 -.0555 .9985 25.5861 23.4081)" gradientUnits="userSpaceOnUse" x1="791.6862" x2="978.3197" xlink:href="#lg4" y1="375.5905" y2="375.5905"/><linearGradient id="lg5"><stop offset="0" stop-color="#bdd4ff"/><stop offset="1" stop-color="#77a7ff"/></linearGradient><linearGradient id="SVGID_00000111188364189913041570000001774235572949629368_" gradientTransform="matrix(.9985 .0555 -.0555 .9985 25.5861 23.4081)" gradientUnits="userSpaceOnUse" x1="976.9928" x2="871.5802" xlink:href="#lg5" y1="375.9727" y2="404.4064"/><linearGradient id="SVGID_00000088836819725319567860000010740054052848982403_" gradientTransform="matrix(.9985 .0555 -.0555 .9985 25.5861 23.4081)" gradientUnits="userSpaceOnUse" x1="561.0812" x2="778.4041" xlink:href="#lg4" y1="286.8434" y2="286.8434"/><linearGradient id="SVGID_00000135652105475335333850000012453260495133228689_" gradientTransform="matrix(.9985 .0555 -.0555 .9985 25.5861 23.4081)" gradientUnits="userSpaceOnUse" x1="567.9285" x2="802.6105" xlink:href="#lg4" y1="265.7631" y2="265.7631"/><linearGradient id="SVGID_00000117637709229832901760000007231740464468103861_" gradientTransform="matrix(.9985 .0555 -.0555 .9985 25.5861 23.4081)" gradientUnits="userSpaceOnUse" x1="822.1606" x2="960.587" xlink:href="#lg5" y1="402.5174" y2="402.5174"/><linearGradient id="SVGID_00000006676738856298608890000006608873770488709515_" gradientTransform="matrix(.9985 .0555 -.0555 .9985 25.5861 23.4081)" gradientUnits="userSpaceOnUse" x1="838.0466" x2="919.1739" xlink:href="#lg4" y1="442.3462" y2="330.7961"/><linearGradient id="SVGID_00000118392631312954641330000001077662560071555510_" gradientUnits="userSpaceOnUse" x1="211.8038" x2="123.8628" xlink:href="#lg3" y1="466.8535" y2="287.7541"/><linearGradient id="lg6"><stop offset="0" stop-color="#305eb2"/><stop offset="1" stop-color="#233b67"/></linearGradient><linearGradient id="SVGID_00000039813187367880610470000008140878391984266911_" gradientUnits="userSpaceOnUse" x1="204.767" x2="27.708" xlink:href="#lg6" y1="364.3493" y2="468.7209"/><linearGradient id="SVGID_00000167357869324571651080000007815804530048678316_" gradientUnits="userSpaceOnUse" x1="402.3582" x2="-3.9457" xlink:href="#lg6" y1="236.7604" y2="450.1631"/><linearGradient id="SVGID_00000134936073486566968680000003377216223759626157_" gradientUnits="userSpaceOnUse" x1="410.9586" x2="4.6547" xlink:href="#lg6" y1="253.1349" y2="466.5377"/><linearGradient id="SVGID_00000117661054485718341550000014021242747742204324_" gradientUnits="userSpaceOnUse" x1="130.4331" x2="-109.9945" xlink:href="#lg6" y1="458.4372" y2="454.7097"/><linearGradient id="SVGID_00000147927979787959670530000000559638228253997716_" gradientTransform="matrix(.868 -.4965 .4965 .868 -875.8682 -435.6206)" gradientUnits="userSpaceOnUse" x1="335.7463" x2="318.9557" xlink:href="#lg6" y1="1275.1169" y2="1218.4486"/><linearGradient id="SVGID_00000034081134024845958620000011919515776487296913_" gradientUnits="userSpaceOnUse" x1="47.037" x2="160.1477" xlink:href="#lg4" y1="457.4642" y2="487.5623"/><linearGradient id="SVGID_00000093891504189944626100000014987165477831401860_" gradientUnits="userSpaceOnUse" x1="46.127" x2="64.5743" xlink:href="#lg6" y1="491.8345" y2="393.2874"/><linearGradient id="SVGID_00000044136309847802071210000013779328073022520728_" gradientUnits="userSpaceOnUse" x1="114.856" x2="-30.7801" xlink:href="#lg6" y1="481.1444" y2="433.0845"/><path id="SVGID_00000165921539175918439890000011615860285963760773_" d="M554.19 174.63c0-45.11-36.57-81.69-81.69-81.69s-81.69 36.57-81.69 81.69c0 29.32 15.45 55.03 38.66 69.44l-21.2 157.99h128.46l-21.2-157.99C538.73 229.66 554.19 203.95 554.19 174.63z"/></defs><path clip-path="url(#SVGID_00000124145911562651150130000005608989065583979443_)" d="M0 .22H945V494.77H0Z" fill="url(#SVGID_00000149354062890381235870000015501602580381676951_)"/><path clip-path="url(#SVGID_00000124145911562651150130000005608989065583979443_)" d="M1041.39 231.68 502.9 246.42 980.78-12.3 956.08-55.09 497.1 226.93 781.59-236.08 738.8-260.78 482.33 212.94 497.2-330.28 447.8-330.28 462.54 208.21 203.82-269.66 161.03-244.96 443.04 214.01-19.96-70.47-44.66-27.69 429.06 228.79-114.16 213.91-114.16 263.32 424.33 248.58-53.54 507.3-28.84 550.09 430.13 268.08 145.64 731.08 188.43 755.78 444.91 282.06 430.03 825.28 479.44 825.28 464.69 286.79 723.42 764.66 766.21 739.96 484.19 280.99 947.19 565.47 971.9 522.69 498.18 266.21 1041.39 281.09Z" fill="url(#SVGID_00000056406547139297894700000002782318043692603541_)"/><path clip-path="url(#SVGID_00000124145911562651150130000005608989065583979443_)" d="M394.77 413.87l22.03-164.14c-23.8-17.61-37.79-45.15-37.79-75.1 0-51.56 41.94-93.5 93.5-93.5 51.56 0 93.5 41.94 93.5 93.5 0 29.95-13.99 57.49-37.79 75.1l22.03 164.15H394.77z" fill="url(#SVGID_00000032648410369175233690000005569327059739092608_)"/><path clip-path="url(#SVGID_00000124145911562651150130000005608989065583979443_)" d="M554.19 174.63c0-45.11-36.57-81.69-81.69-81.69s-81.69 36.57-81.69 81.69c0 29.32 15.45 55.03 38.66 69.44l-21.2 157.99h128.46l-21.2-157.99C538.73 229.66 554.19 203.95 554.19 174.63z" fill="url(#SVGID_00000044872948927304527990000006827777770057595785_)"/><g clip-path="url(#SVGID_00000124145911562651150130000005608989065583979443_)"><g clip-path="url(#SVGID_00000178917916156283839830000002248896818440966538_)"><path d="M397.69 83.07c8.85 0 13.25 7.62 13.25 15.83s-4.4 16.11-13.37 16.11c-9.09 0-13.25-7.78-13.25-15.95C384.32 90.85 388.61 83.07 397.69 83.07zM397.62 108.82c4.92 0 6.82-5.71 6.82-9.84 0-4.09-1.9-9.76-6.82-9.76s-6.82 5.67-6.82 9.76C390.79 103.11 392.69 108.82 397.62 108.82z" fill="url(#SVGID_00000068668372338838160950000005739516477403399575_)"/><path d="M422.38 91.21l-6.55 3.73-2.86-5.2 10.55-6.19h5.28v31.07h-6.43V91.21z" fill="url(#SVGID_00000060721153092972893450000002203920108941094326_)"/><path d="M447.77 83.07c8.85 0 13.25 7.62 13.25 15.83s-4.4 16.11-13.37 16.11c-9.09 0-13.25-7.78-13.25-15.95C434.4 90.85 438.69 83.07 447.77 83.07zM447.69 108.82c4.92 0 6.82-5.71 6.82-9.84 0-4.09-1.9-9.76-6.82-9.76s-6.82 5.67-6.82 9.76C440.87 103.11 442.77 108.82 447.69 108.82z" fill="url(#SVGID_00000071550406033601824730000016472261186509634694_)"/><path d="M478.25 83.07c8.85 0 13.25 7.62 13.25 15.83s-4.4 16.11-13.37 16.11c-9.09 0-13.25-7.78-13.25-15.95C464.88 90.85 469.16 83.07 478.25 83.07zM478.17 108.82c4.92 0 6.82-5.71 6.82-9.84 0-4.09-1.9-9.76-6.82-9.76s-6.82 5.67-6.82 9.76C471.35 103.11 473.25 108.82 478.17 108.82z" fill="url(#SVGID_00000062898957327481765740000008980571673937732279_)"/><path d="M508.73 83.07c8.85 0 13.25 7.62 13.25 15.83s-4.4 16.11-13.37 16.11c-9.09 0-13.25-7.78-13.25-15.95C495.35 90.85 499.64 83.07 508.73 83.07zM508.65 108.82c4.92 0 6.82-5.71 6.82-9.84 0-4.09-1.9-9.76-6.82-9.76-4.92 0-6.82 5.67-6.82 9.76C501.82 103.11 503.73 108.82 508.65 108.82z" fill="url(#SVGID_00000080204289242687829900000003475469378212036022_)"/><path d="M533.41 91.21l-6.55 3.73-2.86-5.2 10.55-6.19h5.28v31.07h-6.43V91.21z" fill="url(#SVGID_00000050638105870058194220000005907859956556640414_)"/><path d="M553.01 91.21l-6.55 3.73-2.86-5.2 10.55-6.19h5.28v31.07h-6.43V91.21z" fill="url(#SVGID_00000038375304610005765770000012884505234371161002_)"/><path d="M391.9 134.47l-6.55 3.73-2.86-5.2 10.55-6.19h5.28v31.07h-6.43V134.47z" fill="url(#SVGID_00000072262678044143590380000017270258314923686049_)"/><path d="M411.5 134.47l-6.55 3.73-2.86-5.2 10.55-6.19h5.28v31.07h-6.43V134.47z" fill="url(#SVGID_00000006705807920798287570000003003107986356536502_)"/><path d="M436.9 126.33c8.85 0 13.25 7.62 13.25 15.83 0 8.21-4.4 16.11-13.37 16.11-9.09 0-13.25-7.78-13.25-15.95C423.53 134.11 427.81 126.33 436.9 126.33zM436.82 152.09c4.92 0 6.82-5.71 6.82-9.84 0-4.09-1.9-9.76-6.82-9.76-4.92 0-6.82 5.67-6.82 9.76C430 146.37 431.9 152.09 436.82 152.09z" fill="url(#SVGID_00000179609299522842163520000015538737070034382733_)"/><path d="M461.58 134.47l-6.55 3.73-2.86-5.2 10.55-6.19h5.28v31.07h-6.43V134.47z" fill="url(#SVGID_00000037678316464598692260000009983144032272262316_)"/><path d="M486.98 126.33c8.85 0 13.25 7.62 13.25 15.83 0 8.21-4.4 16.11-13.37 16.11-9.09 0-13.25-7.78-13.25-15.95C473.61 134.11 477.89 126.33 486.98 126.33zM486.9 152.09c4.92 0 6.82-5.71 6.82-9.84 0-4.09-1.9-9.76-6.82-9.76s-6.82 5.67-6.82 9.76C480.08 146.37 481.98 152.09 486.9 152.09z" fill="url(#SVGID_00000016076978911793454090000001801955080095181958_)"/><path d="M517.46 126.33c8.85 0 13.25 7.62 13.25 15.83 0 8.21-4.4 16.11-13.37 16.11-9.09 0-13.25-7.78-13.25-15.95C504.08 134.11 508.37 126.33 517.46 126.33zM517.38 152.09c4.92 0 6.82-5.71 6.82-9.84 0-4.09-1.9-9.76-6.82-9.76s-6.82 5.67-6.82 9.76C510.55 146.37 512.46 152.09 517.38 152.09z" fill="url(#SVGID_00000080925506603807250130000010168609350683707282_)"/><path d="M542.14 134.47l-6.55 3.73-2.86-5.2 10.55-6.19h5.28v31.07h-6.43V134.47z" fill="url(#SVGID_00000152952274055166509630000015002461229979754626_)"/><path d="M567.54 126.33c8.85 0 13.25 7.62 13.25 15.83 0 8.21-4.4 16.11-13.37 16.11-9.09 0-13.25-7.78-13.25-15.95C554.16 134.11 558.45 126.33 567.54 126.33zM567.46 152.09c4.92 0 6.82-5.71 6.82-9.84 0-4.09-1.9-9.76-6.82-9.76s-6.82 5.67-6.82 9.76C560.63 146.37 562.54 152.09 567.46 152.09z" fill="url(#SVGID_00000049903342699964268630000005296682653161649593_)"/><path d="M397.69 166.83c8.85 0 13.25 7.62 13.25 15.83s-4.4 16.11-13.37 16.11c-9.09 0-13.25-7.78-13.25-15.95C384.32 174.61 388.61 166.83 397.69 166.83zM397.62 192.59c4.92 0 6.82-5.71 6.82-9.84 0-4.09-1.9-9.76-6.82-9.76s-6.82 5.67-6.82 9.76C390.79 186.87 392.69 192.59 397.62 192.59z" fill="url(#SVGID_00000127729211297430534170000013202955866604412607_)"/><path d="M422.38 174.97l-6.55 3.73-2.86-5.2 10.55-6.19h5.28v31.07h-6.43V174.97z" fill="url(#SVGID_00000163039089317496800890000009962292540039584951_)"/><path d="M447.77 166.83c8.85 0 13.25 7.62 13.25 15.83s-4.4 16.11-13.37 16.11c-9.09 0-13.25-7.78-13.25-15.95C434.4 174.61 438.69 166.83 447.77 166.83zM447.69 192.59c4.92 0 6.82-5.71 6.82-9.84 0-4.09-1.9-9.76-6.82-9.76s-6.82 5.67-6.82 9.76C440.87 186.87 442.77 192.59 447.69 192.59z" fill="url(#SVGID_00000067933732000134695290000008955219714498044074_)"/><path d="M478.25 166.83c8.85 0 13.25 7.62 13.25 15.83s-4.4 16.11-13.37 16.11c-9.09 0-13.25-7.78-13.25-15.95C464.88 174.61 469.16 166.83 478.25 166.83zM478.17 192.59c4.92 0 6.82-5.71 6.82-9.84 0-4.09-1.9-9.76-6.82-9.76s-6.82 5.67-6.82 9.76C471.35 186.87 473.25 192.59 478.17 192.59z" fill="url(#SVGID_00000132785290561787872400000002283773980126224778_)"/><path d="M508.73 166.83c8.85 0 13.25 7.62 13.25 15.83s-4.4 16.11-13.37 16.11c-9.09 0-13.25-7.78-13.25-15.95C495.35 174.61 499.64 166.83 508.73 166.83zM508.65 192.59c4.92 0 6.82-5.71 6.82-9.84 0-4.09-1.9-9.76-6.82-9.76-4.92 0-6.82 5.67-6.82 9.76C501.82 186.87 503.73 192.59 508.65 192.59z" fill="url(#SVGID_00000059268625849325460100000006131292650454422681_)"/><path d="M533.41 174.97l-6.55 3.73-2.86-5.2 10.55-6.19h5.28v31.07h-6.43V174.97z" fill="url(#SVGID_00000111871343894677252620000016724995065612888230_)"/><path d="M553.01 174.97l-6.55 3.73-2.86-5.2 10.55-6.19h5.28v31.07h-6.43V174.97z" fill="url(#SVGID_00000098906216655507148080000013194752341926681484_)"/><path d="M391.9 218.23l-6.55 3.73-2.86-5.2 10.55-6.19h5.28v31.07h-6.43V218.23z" fill="url(#SVGID_00000083800528440965476420000017377317486664856459_)"/><path d="M411.5 218.23l-6.55 3.73-2.86-5.2 10.55-6.19h5.28v31.07h-6.43V218.23z" fill="url(#SVGID_00000178195311443069934410000001378224745244005034_)"/><path d="M436.9 210.1c8.85 0 13.25 7.62 13.25 15.83s-4.4 16.11-13.37 16.11c-9.09 0-13.25-7.78-13.25-15.95C423.53 217.87 427.81 210.1 436.9 210.1zM436.82 235.85c4.92 0 6.82-5.71 6.82-9.84 0-4.09-1.9-9.76-6.82-9.76-4.92 0-6.82 5.67-6.82 9.76C430 230.13 431.9 235.85 436.82 235.85z" fill="url(#SVGID_00000079470376747429516480000017607652396685388974_)"/><path d="M461.58 218.23l-6.55 3.73-2.86-5.2 10.55-6.19h5.28v31.07h-6.43V218.23z" fill="url(#SVGID_00000052062454126897303870000017186960433893647285_)"/><path d="M486.98 210.1c8.85 0 13.25 7.62 13.25 15.83s-4.4 16.11-13.37 16.11c-9.09 0-13.25-7.78-13.25-15.95C473.61 217.87 477.89 210.1 486.98 210.1zM486.9 235.85c4.92 0 6.82-5.71 6.82-9.84 0-4.09-1.9-9.76-6.82-9.76s-6.82 5.67-6.82 9.76C480.08 230.13 481.98 235.85 486.9 235.85z" fill="url(#SVGID_00000134961565475648102120000010605473980669029546_)"/><path d="M517.46 210.1c8.85 0 13.25 7.62 13.25 15.83s-4.4 16.11-13.37 16.11c-9.09 0-13.25-7.78-13.25-15.95C504.08 217.87 508.37 210.1 517.46 210.1zM517.38 235.85c4.92 0 6.82-5.71 6.82-9.84 0-4.09-1.9-9.76-6.82-9.76s-6.82 5.67-6.82 9.76C510.55 230.13 512.46 235.85 517.38 235.85z" fill="url(#SVGID_00000111905653928051701240000014500764264575642045_)"/><path d="M542.14 218.23l-6.55 3.73-2.86-5.2 10.55-6.19h5.28v31.07h-6.43V218.23z" fill="url(#SVGID_00000026141424731005958480000014414665955981160120_)"/><path d="M567.54 210.1c8.85 0 13.25 7.62 13.25 15.83s-4.4 16.11-13.37 16.11c-9.09 0-13.25-7.78-13.25-15.95C554.16 217.87 558.45 210.1 567.54 210.1zM567.46 235.85c4.92 0 6.82-5.71 6.82-9.84 0-4.09-1.9-9.76-6.82-9.76s-6.82 5.67-6.82 9.76C560.63 230.13 562.54 235.85 567.46 235.85z" fill="url(#SVGID_00000039821839101049200870000000291169184540922523_)"/><path d="M397.69 252.96c8.85 0 13.25 7.62 13.25 15.83s-4.4 16.11-13.37 16.11c-9.09 0-13.25-7.78-13.25-15.95C384.32 260.74 388.61 252.96 397.69 252.96zM397.62 278.71c4.92 0 6.82-5.71 6.82-9.84 0-4.09-1.9-9.76-6.82-9.76s-6.82 5.67-6.82 9.76C390.79 273 392.69 278.71 397.62 278.71z" fill="url(#SVGID_00000137126898672167740890000004601758766603274144_)"/><path d="M422.38 261.1l-6.55 3.73-2.86-5.2 10.55-6.19h5.28v31.07h-6.43V261.1z" fill="url(#SVGID_00000027580671825770746200000003234163978179410072_)"/><path d="M447.77 252.96c8.85 0 13.25 7.62 13.25 15.83s-4.4 16.11-13.37 16.11c-9.09 0-13.25-7.78-13.25-15.95C434.4 260.74 438.69 252.96 447.77 252.96zM447.69 278.71c4.92 0 6.82-5.71 6.82-9.84 0-4.09-1.9-9.76-6.82-9.76s-6.82 5.67-6.82 9.76C440.87 273 442.77 278.71 447.69 278.71z" fill="url(#SVGID_00000171679564053803290760000012489573075882269619_)"/><path d="M478.25 252.96c8.85 0 13.25 7.62 13.25 15.83s-4.4 16.11-13.37 16.11c-9.09 0-13.25-7.78-13.25-15.95C464.88 260.74 469.16 252.96 478.25 252.96zM478.17 278.71c4.92 0 6.82-5.71 6.82-9.84 0-4.09-1.9-9.76-6.82-9.76s-6.82 5.67-6.82 9.76C471.35 273 473.25 278.71 478.17 278.71z" fill="url(#SVGID_00000070081483810904467390000003006860162818701464_)"/><path d="M508.73 252.96c8.85 0 13.25 7.62 13.25 15.83s-4.4 16.11-13.37 16.11c-9.09 0-13.25-7.78-13.25-15.95C495.35 260.74 499.64 252.96 508.73 252.96zM508.65 278.71c4.92 0 6.82-5.71 6.82-9.84 0-4.09-1.9-9.76-6.82-9.76-4.92 0-6.82 5.67-6.82 9.76C501.82 273 503.73 278.71 508.65 278.71z" fill="url(#SVGID_00000166669679397737469190000004105730901879366802_)"/><path d="M533.41 261.1l-6.55 3.73-2.86-5.2 10.55-6.19h5.28v31.07h-6.43V261.1z" fill="url(#SVGID_00000182494078598712577440000016860970818016966290_)"/><path d="M553.01 261.1l-6.55 3.73-2.86-5.2 10.55-6.19h5.28v31.07h-6.43V261.1z" fill="url(#SVGID_00000152235465540867159520000016538256003651473832_)"/><path d="M391.9 304.36l-6.55 3.73-2.86-5.2 10.55-6.19h5.28v31.07h-6.43V304.36z" fill="url(#SVGID_00000076588420727356017060000000784830405142739107_)"/><path d="M411.5 304.36l-6.55 3.73-2.86-5.2 10.55-6.19h5.28v31.07h-6.43V304.36z" fill="url(#SVGID_00000043436478467729418540000007095665122020056252_)"/><path d="M436.9 296.22c8.85 0 13.25 7.62 13.25 15.83s-4.4 16.11-13.37 16.11c-9.09 0-13.25-7.78-13.25-15.95C423.53 304 427.81 296.22 436.9 296.22zM436.82 321.98c4.92 0 6.82-5.71 6.82-9.84 0-4.09-1.9-9.76-6.82-9.76-4.92 0-6.82 5.67-6.82 9.76C430 316.26 431.9 321.98 436.82 321.98z" fill="url(#SVGID_00000104698959020488076690000008288844572964636297_)"/><path d="M461.58 304.36l-6.55 3.73-2.86-5.2 10.55-6.19h5.28v31.07h-6.43V304.36z" fill="url(#SVGID_00000146497888038837937390000017555425407556936075_)"/><path d="M486.98 296.22c8.85 0 13.25 7.62 13.25 15.83s-4.4 16.11-13.37 16.11c-9.09 0-13.25-7.78-13.25-15.95C473.61 304 477.89 296.22 486.98 296.22zM486.9 321.98c4.92 0 6.82-5.71 6.82-9.84 0-4.09-1.9-9.76-6.82-9.76s-6.82 5.67-6.82 9.76C480.08 316.26 481.98 321.98 486.9 321.98z" fill="url(#SVGID_00000159454290257536283590000010647324196286870669_)"/><path d="M517.46 296.22c8.85 0 13.25 7.62 13.25 15.83s-4.4 16.11-13.37 16.11c-9.09 0-13.25-7.78-13.25-15.95C504.08 304 508.37 296.22 517.46 296.22zM517.38 321.98c4.92 0 6.82-5.71 6.82-9.84 0-4.09-1.9-9.76-6.82-9.76s-6.82 5.67-6.82 9.76C510.55 316.26 512.46 321.98 517.38 321.98z" fill="url(#SVGID_00000153693520447328182390000004167413437491555467_)"/><path d="M542.14 304.36l-6.55 3.73-2.86-5.2 10.55-6.19h5.28v31.07h-6.43V304.36z" fill="url(#SVGID_00000171720629943097759770000006699742023047166650_)"/><path d="M567.54 296.22c8.85 0 13.25 7.62 13.25 15.83s-4.4 16.11-13.37 16.11c-9.09 0-13.25-7.78-13.25-15.95C554.16 304 558.45 296.22 567.54 296.22zM567.46 321.98c4.92 0 6.82-5.71 6.82-9.84 0-4.09-1.9-9.76-6.82-9.76s-6.82 5.67-6.82 9.76C560.63 316.26 562.54 321.98 567.46 321.98z" fill="url(#SVGID_00000022533791366172122940000014731400767828012690_)"/><path d="M397.69 336.72c8.85 0 13.25 7.62 13.25 15.83 0 8.21-4.4 16.11-13.37 16.11-9.09 0-13.25-7.78-13.25-15.95C384.32 344.5 388.61 336.72 397.69 336.72zM397.62 362.48c4.92 0 6.82-5.71 6.82-9.84 0-4.09-1.9-9.76-6.82-9.76s-6.82 5.67-6.82 9.76C390.79 356.76 392.69 362.48 397.62 362.48z" fill="url(#SVGID_00000090270318862368878500000018327188677529144709_)"/><path d="M422.38 344.86l-6.55 3.73-2.86-5.2 10.55-6.19h5.28v31.07h-6.43V344.86z" fill="url(#SVGID_00000029726377011191903400000009986371320765478034_)"/><path d="M447.77 336.72c8.85 0 13.25 7.62 13.25 15.83 0 8.21-4.4 16.11-13.37 16.11-9.09 0-13.25-7.78-13.25-15.95C434.4 344.5 438.69 336.72 447.77 336.72zM447.69 362.48c4.92 0 6.82-5.71 6.82-9.84 0-4.09-1.9-9.76-6.82-9.76s-6.82 5.67-6.82 9.76C440.87 356.76 442.77 362.48 447.69 362.48z" fill="url(#SVGID_00000046332298866881503280000017465068405509503672_)"/><path d="M478.25 336.72c8.85 0 13.25 7.62 13.25 15.83 0 8.21-4.4 16.11-13.37 16.11-9.09 0-13.25-7.78-13.25-15.95C464.88 344.5 469.16 336.72 478.25 336.72zM478.17 362.48c4.92 0 6.82-5.71 6.82-9.84 0-4.09-1.9-9.76-6.82-9.76s-6.82 5.67-6.82 9.76C471.35 356.76 473.25 362.48 478.17 362.48z" fill="url(#SVGID_00000016033348560401640770000002038813914194850209_)"/><path d="M508.73 336.72c8.85 0 13.25 7.62 13.25 15.83 0 8.21-4.4 16.11-13.37 16.11-9.09 0-13.25-7.78-13.25-15.95C495.35 344.5 499.64 336.72 508.73 336.72zM508.65 362.48c4.92 0 6.82-5.71 6.82-9.84 0-4.09-1.9-9.76-6.82-9.76-4.92 0-6.82 5.67-6.82 9.76C501.82 356.76 503.73 362.48 508.65 362.48z" fill="url(#SVGID_00000179624346227928016980000002702428776102924182_)"/><path d="M533.41 344.86l-6.55 3.73-2.86-5.2 10.55-6.19h5.28v31.07h-6.43V344.86z" fill="url(#SVGID_00000138541417392487258160000014962820749664637628_)"/><path d="M553.01 344.86l-6.55 3.73-2.86-5.2 10.55-6.19h5.28v31.07h-6.43V344.86z" fill="url(#SVGID_00000176042957883735540480000000384255968499046578_)"/><path d="M391.9 388.12l-6.55 3.73-2.86-5.2 10.55-6.19h5.28v31.07h-6.43V388.12z" fill="url(#SVGID_00000028314345806924797290000017004368363377935521_)"/><path d="M411.5 388.12l-6.55 3.73-2.86-5.2 10.55-6.19h5.28v31.07h-6.43V388.12z" fill="url(#SVGID_00000178187102851617888150000007057828823151673278_)"/><path d="M436.9 379.99c8.85 0 13.25 7.62 13.25 15.83s-4.4 16.11-13.37 16.11c-9.09 0-13.25-7.78-13.25-15.95C423.53 387.76 427.81 379.99 436.9 379.99zM436.82 405.74c4.92 0 6.82-5.71 6.82-9.84 0-4.09-1.9-9.76-6.82-9.76-4.92 0-6.82 5.67-6.82 9.76C430 400.02 431.9 405.74 436.82 405.74z" fill="url(#SVGID_00000049901719000499741730000018268530931363944591_)"/><path d="M461.58 388.12l-6.55 3.73-2.86-5.2 10.55-6.19h5.28v31.07h-6.43V388.12z" fill="url(#SVGID_00000059999023972356766530000000543273015702746768_)"/><path d="M486.98 379.99c8.85 0 13.25 7.62 13.25 15.83s-4.4 16.11-13.37 16.11c-9.09 0-13.25-7.78-13.25-15.95C473.61 387.76 477.89 379.99 486.98 379.99zM486.9 405.74c4.92 0 6.82-5.71 6.82-9.84 0-4.09-1.9-9.76-6.82-9.76s-6.82 5.67-6.82 9.76C480.08 400.02 481.98 405.74 486.9 405.74z" fill="url(#SVGID_00000083063689956736958510000017708163224109524870_)"/><path d="M517.46 379.99c8.85 0 13.25 7.62 13.25 15.83s-4.4 16.11-13.37 16.11c-9.09 0-13.25-7.78-13.25-15.95C504.08 387.76 508.37 379.99 517.46 379.99zM517.38 405.74c4.92 0 6.82-5.71 6.82-9.84 0-4.09-1.9-9.76-6.82-9.76s-6.82 5.67-6.82 9.76C510.55 400.02 512.46 405.74 517.38 405.74z" fill="url(#SVGID_00000160189279545119542460000013577000494455931780_)"/><path d="M542.14 388.12l-6.55 3.73-2.86-5.2 10.55-6.19h5.28v31.07h-6.43V388.12z" fill="url(#SVGID_00000031913477973109849250000004258426141193231277_)"/><path d="M567.54 379.99c8.85 0 13.25 7.62 13.25 15.83s-4.4 16.11-13.37 16.11c-9.09 0-13.25-7.78-13.25-15.95C554.16 387.76 558.45 379.99 567.54 379.99zM567.46 405.74c4.92 0 6.82-5.71 6.82-9.84 0-4.09-1.9-9.76-6.82-9.76s-6.82 5.67-6.82 9.76C560.63 400.02 562.54 405.74 567.46 405.74z" fill="url(#SVGID_00000129909750972749939430000008856833892041589932_)"/></g></g><g clip-path="url(#SVGID_00000124145911562651150130000005608989065583979443_)"><path d="M935.9 394.8c-27.94-15.32-60.62-13.64-86.15 1.56-9.88-5.42-21.93-3.05-29.1 5.05L603.86 282.52l-15.31 4.53v0l-8.42 2.49-6.81 12.42 0 0-.82 1.49 19.64 30.81 24.52 13.45 10.52-8.45 19.22 10.54-2.46 12.88 1.41.77 14.14-5.82 2.84 15.13 14.08 7.72 11.29-2 3.41 10.06 12.84 7.04 11.94-6.81 31.59 17.32 15.94 22.1 17.38 9.53v0l15.32 8.4c-2.97 10.4 1.5 21.83 11.38 27.25.92 30.4 17.82 59.49 46.97 74.54 41.4 21.37 92.77 5.85 115.46-34.84C993.4 471.01 978.08 417.94 935.9 394.8z" fill="url(#SVGID_00000098900553416896017190000004373509160572598964_)"/><path d="M825.9 439.18 764.15 405.31 748.21 383.21 716.63 365.89 704.69 372.7 691.85 365.66 688.44 355.6 677.15 357.6 663.07 349.88 660.22 334.74 646.08 340.56 644.68 339.79 647.13 326.92 627.92 316.38 617.4 324.83 592.87 311.38 573.23 280.57 580.87 266.65 604.59 259.63 850.43 394.45Z" fill="url(#SVGID_00000157989315058312119290000003918031188806523323_)"/><path d="M936.63 371.9c-27.94-15.32-60.62-13.64-86.15 1.56l0 0c-11.47-6.29-25.86-2.09-32.15 9.38l-19.47 35.51c-6.29 11.47-2.09 25.86 9.38 32.15l0 0c.93 30.4 17.82 59.49 46.97 74.54 41.4 21.36 92.77 5.85 115.46-34.84C994.14 448.11 978.81 395.04 936.63 371.9zM936.37 444.49c11.12 6.1 15.19 20.05 9.09 31.17-6.1 11.12-20.05 15.19-31.17 9.09-11.12-6.1-15.19-20.05-9.09-31.17C911.3 442.46 925.26 438.39 936.37 444.49z" fill="url(#SVGID_00000123426819367242222970000001207034430881781130_)"/><path d="M938.44 440.72c-13.18-7.23-29.78-2.39-37 10.79-7.23 13.18-2.39 29.78 10.79 37 13.18 7.23 29.78 2.39 37-10.79C956.46 464.55 951.62 447.95 938.44 440.72zM936.37 444.49c11.12 6.1 15.19 20.05 9.09 31.17-6.1 11.12-20.05 15.19-31.17 9.09-11.12-6.1-15.19-20.05-9.09-31.17C911.3 442.46 925.26 438.39 936.37 444.49z" fill="url(#SVGID_00000111188364189913041570000001774235572949629368_)"/><path d="M781.53 414.85 781.53 414.85l-17.38-9.53-15.94-22.1-31.59-17.32-11.94 6.81-12.84-7.04-3.41-10.06-11.29 2-14.08-7.72-2.84-15.13-14.14 5.82-1.41-.77 2.46-12.88-19.22-10.54-10.52 8.45-24.52-13.45-19.64-30.81.82-1.49 199.85 109.6C783.23 393.8 786.65 405.51 781.53 414.85z" fill="url(#SVGID_00000088836819725319567860000010740054052848982403_)"/><path d="M580.87 266.65l8.42-2.49L807.61 383.9c1.51.83 2.06 2.72 1.23 4.23v0c-.83 1.51-2.72 2.06-4.23 1.23L580.87 266.65z" fill="url(#SVGID_00000135652105475335333850000012453260495133228689_)"/><path d="M963.42 459.24c-1.24 7.54-3.76 15-7.64 22.08-18.43 33.61-60.62 45.91-94.22 27.48-29.06-15.94-42.18-49.64-33.29-80.19-4.66 28.25 8.59 57.59 35.12 72.14 33.6 18.43 75.79 6.13 94.22-27.48C960.1 468.72 962.03 464.02 963.42 459.24z" fill="url(#SVGID_00000117637709229832901760000007231740464468103861_)"/><path d="M963.01 461.52c4.53-28.16-8.72-57.37-35.16-71.88-33.61-18.43-75.79-6.13-94.22 27.48-3.49 6.36-5.88 13.03-7.22 19.79 1.23-7.63 3.75-15.19 7.68-22.35 18.43-33.61 60.62-45.91 94.22-27.48C955.55 402.04 968.79 432.58 963.01 461.52z" fill="url(#SVGID_00000006676738856298608890000006608873770488709515_)"/></g><g clip-path="url(#SVGID_00000124145911562651150130000005608989065583979443_)"><path d="M370.96 301.25 370.96 301.25l-.69-1.2-4.69-8.14-20.29 2.9 0 0-26.74 3.82L122.61 411.55c-5.51 3.18-12.55 1.28-15.73-4.23l-15.12 8.71-7.05-12.23c-15.05 8.67-34.28 3.5-42.95-11.54l-58.4 33.66c8.67 15.05 3.5 34.28-11.55 42.95l51.19 88.83c15.05-8.67 34.28-3.5 42.95 11.55l58.4-33.66c-8.67-15.05-3.5-34.28 11.55-42.95l-7.05-12.23 15.6-8.99c-3.18-5.51-1.28-12.55 4.23-15.73l38.81-22.37-.58-1.01c-1.91-3.31-.77-7.55 2.54-9.46l13.5-7.78c3.31-1.91 7.55-.77 9.46 2.54l.58 1.01 21.33-12.29c3.68-2.12 6.39-5.58 7.56-9.66l5.86-20.41 14.9 7.05c4.04 1.91 8.77 1.71 12.63-.54l0 0c3.86-2.25 6.36-6.25 6.69-10.7l.2-2.66c0 0 5.1 1.79 9.99 3.59l7.06-4.07-1.62-2.81c-2.26-3.92-.91-8.93 3.01-11.19l26.61-15.33c3.92-2.26 8.93-.91 11.19 3.01l1.62 2.81 19.1-11.01 15.25-27.18L370.96 301.25z" fill="url(#SVGID_00000118392631312954641330000001077662560071555510_)"/><path d="M79.6 394.88l19.4-11.18c3.18 5.51 10.22 7.4 15.73 4.23l195.94-112.92 47.03-6.72 8.82 15.3-15.25 27.18-19.1 11.01-1.62-2.81c-2.26-3.92-7.27-5.27-11.19-3.01l-26.61 15.33c-3.92 2.26-5.27 7.27-3.01 11.19l1.62 2.81-7.06 4.07c-4.89-1.79-9.99-3.59-9.99-3.59l-.2 2.66c-.34 4.45-2.84 8.45-6.7 10.7l0 0c-3.86 2.25-8.59 2.45-12.63.54l-14.9-7.05-5.86 20.41c-1.17 4.08-3.88 7.54-7.56 9.66l-21.33 12.29-.58-1.01c-1.91-3.31-6.15-4.45-9.46-2.54l-13.5 7.78c-3.31 1.91-4.45 6.15-2.54 9.46l.58 1.01-38.81 22.37c-5.51 3.18-7.4 10.22-4.23 15.73l-19.89 11.46L79.6 394.88z" fill="url(#SVGID_00000039813187367880610470000008140878391984266911_)"/><path d="M310.67 275.01l26.74-3.82 0 0L149.81 379.31c-4.81 2.77-10.95 1.12-13.72-3.69l0 0L310.67 275.01z" fill="url(#SVGID_00000167357869324571651080000007815804530048678316_)"/><path d="M124.73 409.6c-1.29-2.24-.52-5.1 1.72-6.39l231.97-133.69 4.67 8.1L131.12 411.32C128.88 412.61 126.02 411.84 124.73 409.6z" fill="url(#SVGID_00000134936073486566968680000003377216223759626157_)"/><path d="M58.08 545.62l58.4-33.66c-8.67-15.05-3.5-34.28 11.55-42.95l-51.19-88.83c-15.05 8.67-34.28 3.5-42.95-11.54l-58.4 33.66c8.67 15.05 3.5 34.28-11.55 42.95l51.19 88.83C30.18 525.4 49.41 530.57 58.08 545.62zM25.21 487.09c-7.46 4.3-16.99 1.74-21.29-5.72-4.3-7.46-1.74-16.99 5.72-21.29 7.46-4.3 16.99-1.74 21.29 5.72C35.23 473.26 32.67 482.79 25.21 487.09z" fill="url(#SVGID_00000117661054485718341550000014021242747742204324_)"/><path d="M7.94 459.2c5.07-2.92 11.09-2.67 15.78.13-4.39-1.93-9.6-1.82-14.07.75-7.46 4.3-10.02 13.83-5.72 21.29 1.38 2.39 3.29 4.27 5.51 5.59-2.93-1.29-5.49-3.49-7.21-6.48C-2.08 473.03.48 463.5 7.94 459.2z" fill="url(#SVGID_00000147927979787959670530000000559638228253997716_)"/><path d="M58.95 535.46l47.12-27.16c-5.39-14.97-.84-31.88 11.33-42.14l-44.34-76.94c.34-.11.67-.22 1-.34l45.04 78.16c-12.17 10.25-16.72 27.16-11.33 42.14l-47.74 27.51C59.69 536.27 59.32 535.86 58.95 535.46z" fill="url(#SVGID_00000034081134024845958620000011919515776487296913_)"/><path d="M54.11 390.47c6.55 1.23 13.43.77 19.96-1.58l1.76 3.05C68.52 393.58 60.97 393.01 54.11 390.47z" fill="url(#SVGID_00000093891504189944626100000014987165477831401860_)"/><path d="M-9.55 406.81c5.39 14.97.84 31.88-11.33 42.14l43.29 75.11c-1.51.34-3.02.77-4.5 1.31l-45.04-78.16c12.17-10.25 16.72-27.16 11.33-42.14l47.74-27.51c1.03 1.23 2.14 2.37 3.3 3.44L-9.55 406.81z" fill="url(#SVGID_00000044136309847802071210000013779328073022520728_)"/></g></svg>